<?xml version="1.0" encoding="utf-8"?>
<!-- Generator: Adobe Illustrator 25.2.3, SVG Export Plug-In . SVG Version: 6.00 Build 0)  -->
<svg version="1.1" xmlns="http://www.w3.org/2000/svg" xmlns:xlink="http://www.w3.org/1999/xlink" x="0px" y="0px"
	 viewBox="0 0 612 792" style="enable-background:new 0 0 612 792;" xml:space="preserve">
<style type="text/css">
	.st0{font-family:'sans-serif';}
	.st1{font-size:14px;}
	.st2{font-family:'sans-serif'; font-weight:600;}
	.st3{font-size:28px;}
	.st4{fill:#FFFFFF;}
	.st5{fill:none;stroke:#000000;stroke-width:1.0616;stroke-miterlimit:10;}
	.st6{stroke:#000000;stroke-width:0.5;stroke-miterlimit:10;}
	.st7{fill:#FFFFFF;stroke:#000000;stroke-width:1.0616;stroke-miterlimit:10;}
	.st8{display:none;fill:#FFFFFF;stroke:#000000;stroke-width:1.1312;stroke-miterlimit:10;}
	.st9{fill:#FFFFFF;stroke:#000000;stroke-width:1.1312;stroke-miterlimit:10;}
	.st10{font-size:24px;}
</style>
<g id="Layer_1">
	<text transform="matrix(1 0 0 1 40.5986 58.3419)" class="st0 st1">Name: </text>
	<text transform="matrix(1 0 0 1 126.186 109.4715)" class="st2 st3">Vocabulary Four-Square</text>
	<g>
		<g>
			<path class="st4" d="M553.91,740.34H58.09c-9.66,0-17.49-7.83-17.49-17.49v-563.2c0-9.66,7.83-17.49,17.49-17.49h495.82
				c9.66,0,17.49,7.83,17.49,17.49v563.2C571.4,732.51,563.57,740.34,553.91,740.34z"/>
			<path class="st5" d="M553.91,740.34H58.09c-9.66,0-17.49-7.83-17.49-17.49v-563.2c0-9.66,7.83-17.49,17.49-17.49h495.82
				c9.66,0,17.49,7.83,17.49,17.49v563.2C571.4,732.51,563.57,740.34,553.91,740.34z"/>
		</g>
	</g>
	<line class="st6" x1="91.27" y1="62.62" x2="252.53" y2="62.62"/>
</g>
<g id="Layer_2">
	<line class="st7" x1="306" y1="142.16" x2="306" y2="740.34"/>
	<line class="st7" x1="40.6" y1="441.25" x2="571.4" y2="441.25"/>
	<circle class="st8" cx="306" cy="451.25" r="85.43"/>
	<g id="Layer_3">
		<circle class="st9" cx="306" cy="441.25" r="85.43"/>
	</g>
	<text transform="matrix(1 0 0 1 266.0884 446.0146)" class="st2 st10">region</text>
	<text transform="matrix(1 0 0 1 58.3523 172.1578)"><tspan x="0" y="0" class="st0 st1">Definition: region: an</tspan><tspan x="0" y="16.8" class="st0 st1">area in a country</tspan></text>
	<text transform="matrix(1 0 0 1 58.3523 697.1382)"><tspan x="0" y="0" class="st0 st1">Synonym / Antonym:</tspan><tspan x="0" y="16.8" class="st0 st1">synonym – area</tspan></text>
	<text transform="matrix(1 0 0 1 430.4914 172.1578)"><tspan x="0" y="0" class="st0 st1">Sentence: I live in</tspan><tspan x="-30.27" y="16.8" class="st0 st1">the Midwest region of</tspan><tspan x="-2.63" y="33.6" class="st0 st1">the United States.</tspan></text>
	<text transform="matrix(1 0 0 1 414.9367 697.1382)"><tspan x="0" y="0" class="st0 st1">Example: Northeast</tspan><tspan x="-1.2" y="16.8" class="st0 st1">of the United States</tspan></text>
</g>
</svg>
